<?xml version="1.0" encoding="UTF-8"?>
<svg version="1.1" xmlns="http://www.w3.org/2000/svg" width="616" height="405">
<path d="M0 0 C1.20970459 0.00523682 2.41940918 0.01047363 3.66577148 0.01586914 C4.97094727 0.0190918 6.27612305 0.02231445 7.62084961 0.02563477 C9.00952213 0.03399138 10.39819401 0.04245634 11.78686523 0.05102539 C13.17944179 0.05603873 14.57202005 0.06060193 15.96459961 0.06469727 C19.38456394 0.07653105 22.80444367 0.09301659 26.22436523 0.11352539 C26.25124674 1.75927105 26.27070647 3.40513952 26.28686523 5.05102539 C26.2984668 5.96754883 26.31006836 6.88407227 26.32202148 7.82836914 C26.22436523 10.11352539 26.22436523 10.11352539 25.22436523 11.11352539 C22.36168956 11.18677707 19.52364624 11.20590744 16.66186523 11.17602539 C15.85555664 11.17151367 15.04924805 11.16700195 14.21850586 11.16235352 C12.22042767 11.15053057 10.2223874 11.13259453 8.22436523 11.11352539 C8.22436523 13.42352539 8.22436523 15.73352539 8.22436523 18.11352539 C12.51436523 18.11352539 16.80436523 18.11352539 21.22436523 18.11352539 C23.34936523 24.61352539 23.34936523 24.61352539 22.22436523 29.11352539 C17.60436523 29.11352539 12.98436523 29.11352539 8.22436523 29.11352539 C8.22436523 31.75352539 8.22436523 34.39352539 8.22436523 37.11352539 C14.82436523 37.11352539 21.42436523 37.11352539 28.22436523 37.11352539 C27.56436523 40.08352539 26.90436523 43.05352539 26.22436523 46.11352539 C21.99673115 48.22734243 16.43177724 47.34291569 11.78686523 47.36352539 C10.62864258 47.38415039 9.47041992 47.40477539 8.27709961 47.42602539 C6.61324219 47.43375977 6.61324219 47.43375977 4.91577148 47.44165039 C3.38738647 47.45566895 3.38738647 47.45566895 1.828125 47.4699707 C-1.24067651 47.04986285 -1.90562275 46.51333812 -3.77563477 44.11352539 C-4.14312744 42.12704468 -4.14312744 42.12704468 -4.13208008 39.84155273 C-4.13508118 38.98411469 -4.13808228 38.12667664 -4.14117432 37.24325562 C-4.12265411 35.86032822 -4.12265411 35.86032822 -4.10375977 34.44946289 C-4.1018866 33.50164948 -4.10001343 32.55383606 -4.0980835 31.57730103 C-4.09136228 29.57501708 -4.07744641 27.57274629 -4.05688477 25.57055664 C-4.02568633 22.49361068 -4.01591022 19.41717643 -4.01000977 16.34008789 C-4.00084177 14.39737326 -3.99046665 12.45466388 -3.97875977 10.51196289 C-3.97450989 9.58596283 -3.97026001 8.65996277 -3.96588135 7.7059021 C-3.9562738 6.85476837 -3.94666626 6.00363464 -3.93676758 5.12670898 C-3.92993958 4.37408783 -3.92311157 3.62146667 -3.91607666 2.84603882 C-3.67598784 -0.11573487 -2.99217574 0.12238207 0 0 Z " fill="#151515" transform="translate(207.775634765625,180.886474609375)"/>
<path d="M0 0 C8 0 8 0 12 2 C13.34246312 1.35191436 14.67432801 0.68177416 16 0 C20.97294029 -0.45208548 24.05329969 -0.15736025 28 3 C29.90656498 6.0674828 30.27712746 8.51641725 30.37890625 12.09765625 C30.43014648 13.54688477 30.43014648 13.54688477 30.48242188 15.02539062 C30.50884766 16.02763672 30.53527344 17.02988281 30.5625 18.0625 C30.62244699 20.05350523 30.68608502 22.0444037 30.75390625 24.03515625 C30.77783447 24.9156665 30.8017627 25.79617676 30.82641602 26.70336914 C30.9183336 29.16138232 30.9183336 29.16138232 32 32 C30.04683776 34.64251362 28.82776426 35.04384183 25.5625 35.875 C22 36 22 36 19.81542969 34.81323242 C17.49994637 32.5005516 17.4689846 31.34561471 17.390625 28.11328125 C17.35839844 27.17548828 17.32617188 26.23769531 17.29296875 25.27148438 C17.27878906 24.29501953 17.26460938 23.31855469 17.25 22.3125 C17.22035156 21.32443359 17.19070313 20.33636719 17.16015625 19.31835938 C17.08944508 16.87882404 17.03675735 14.44024475 17 12 C15.68 12.33 14.36 12.66 13 13 C12.67 20.26 12.34 27.52 12 35 C3 36 3 36 0 35 C0 23.45 0 11.9 0 0 Z " fill="#202020" transform="translate(240,193)"/>
<path d="M0 0 C4.00211807 1.8859703 6.40013628 4.91386159 8 9 C8.23046875 11.98046875 8.23046875 11.98046875 8.1875 15.1875 C8.18105469 16.25355469 8.17460937 17.31960937 8.16796875 18.41796875 C8 21 8 21 7 22 C4.30764224 22.23678716 1.63501844 22.42198025 -1.0625 22.5625 C-2.20041992 22.62727539 -2.20041992 22.62727539 -3.36132812 22.69335938 C-5.24065438 22.79973633 -7.12030244 22.90039934 -9 23 C-8.67 23.66 -8.34 24.32 -8 25 C-6.62714844 24.94779297 -6.62714844 24.94779297 -5.2265625 24.89453125 C-4.03804688 24.86746094 -2.84953125 24.84039062 -1.625 24.8125 C-0.44164062 24.77769531 0.74171875 24.74289063 1.9609375 24.70703125 C3.46527344 24.85205078 3.46527344 24.85205078 5 25 C7.1519437 28.22791555 7.20086443 29.28400809 7 33 C0.80722257 36.3778786 -5.0092442 36.88355386 -12 36 C-16.01230528 34.02904302 -18.71240216 31.85279636 -21 28 C-22.92841901 21.91806313 -23.12382642 14.06818937 -20.875 8.0625 C-15.59696735 -0.55828667 -9.81835944 -1.57193556 0 0 Z M-8 9 C-8.66 10.32 -9.32 11.64 -10 13 C-7.69 13 -5.38 13 -3 13 C-3.66 11.68 -4.32 10.36 -5 9 C-5.99 9 -6.98 9 -8 9 Z " fill="#202020" transform="translate(369,193)"/>
<path d="M0 0 C8 0 8 0 11 2 C11.515625 1.67 12.03125 1.34 12.5625 1 C16.83373258 -0.75230055 20.55470463 -0.57811815 24.8125 1.125 C28.2300566 4.05433422 28.84911488 7.59166188 29.31884766 11.97607422 C29.365979 13.49998779 29.365979 13.49998779 29.4140625 15.0546875 C29.45273437 16.16328125 29.49140625 17.271875 29.53125 18.4140625 C29.5621875 19.55617187 29.593125 20.69828125 29.625 21.875 C29.66367187 23.0403125 29.70234375 24.205625 29.7421875 25.40625 C29.83610319 28.27067864 29.92177983 31.13510692 30 34 C25.83435851 35.83175067 23.45985857 36.28840359 19 35 C16.87719437 31.81579155 16.71980463 30.79462745 16.5859375 27.11328125 C16.54726563 26.17548828 16.50859375 25.23769531 16.46875 24.27148438 C16.4378125 23.29501953 16.406875 22.31855469 16.375 21.3125 C16.33632813 20.32443359 16.29765625 19.33636719 16.2578125 18.31835938 C16.16354133 15.87909293 16.07793782 13.43983405 16 11 C14.02 11.99 14.02 11.99 12 13 C11.67 20.26 11.34 27.52 11 35 C2 36 2 36 0 35 C0 23.45 0 11.9 0 0 Z " fill="#171717" transform="translate(382,193)"/>
<path d="M0 0 C3.56568045 4.79138311 4.29314516 8.68306293 4.3125 14.625 C4.32925781 15.80964844 4.34601563 16.99429688 4.36328125 18.21484375 C3.83213631 23.29213243 2.23707237 26.54320806 -1.5 30 C-6.36225735 33.28202371 -11.30952264 33.32568438 -17 32.6875 C-21.48035444 30.48805327 -23.86312614 28.18618182 -26 23.6875 C-27.99496112 17.04693012 -27.78601413 9.82802349 -25.046875 3.4453125 C-22.82922155 -0.27835933 -19.85240447 -2.7932194 -15.6171875 -3.98046875 C-9.85247277 -4.71181316 -4.59010823 -3.53820843 0 0 Z M-13 5.6875 C-15.35641524 7.60156662 -15.35641524 7.60156662 -15.1953125 10.9453125 C-15.17210937 12.22148437 -15.14890625 13.49765625 -15.125 14.8125 C-15.10695313 16.09382813 -15.08890625 17.37515625 -15.0703125 18.6953125 C-15.04710937 19.68273437 -15.02390625 20.67015625 -15 21.6875 C-13.35 22.0175 -11.7 22.3475 -10 22.6875 C-7.30888743 18.65083114 -7.44388401 15.42693626 -8 10.6875 C-9.1880818 7.6692035 -9.1880818 7.6692035 -11 5.6875 C-11.66 5.6875 -12.32 5.6875 -13 5.6875 Z " fill="#171717" transform="translate(471,196.3125)"/>
<path d="M0 0 C1.03640625 0.18304688 2.0728125 0.36609375 3.140625 0.5546875 C5.75 1.125 5.75 1.125 7.75 2.125 C7 8.875 7 8.875 4.75 11.125 C0.99574497 10.77738379 -2.61950856 10.1415376 -6.25 9.125 C-4.58521879 12.45456242 -0.98710648 13.22339212 2.3046875 14.7109375 C4.98081973 16.25847723 6.22287967 17.45130389 7.75 20.125 C8.6325971 24.5697908 8.31972132 28.13326289 6.0625 32.0625 C1.33379912 36.27998997 -3.34948409 36.48539048 -9.4453125 36.39453125 C-13.46935775 36.00781938 -16.57892926 34.78737166 -20.25 33.125 C-19.9952486 31.80928397 -19.72065859 30.49739624 -19.4375 29.1875 C-19.21126953 28.09115234 -19.21126953 28.09115234 -18.98046875 26.97265625 C-18.73941406 26.36292969 -18.49835938 25.75320312 -18.25 25.125 C-15.25 24.125 -15.25 24.125 -12.3125 25.125 C-9.14182097 26.16032376 -8.28407066 26.06864185 -5.25 25.125 C-6.26320313 24.67060547 -6.26320313 24.67060547 -7.296875 24.20703125 C-16.84058136 19.72479922 -16.84058136 19.72479922 -19.25 15.125 C-19.73285388 11.26216896 -19.61312836 8.9238824 -18 5.375 C-15.44786512 2.09368372 -13.60509326 0.437269 -9.50390625 -0.5078125 C-6.07675936 -0.89454936 -3.38316589 -0.62053043 0 0 Z " fill="#232323" transform="translate(434.25,192.875)"/>
<path d="M0 0 C-0.75 6.75 -0.75 6.75 -3 9 C-7.0577902 8.6171896 -11.01514422 7.84527244 -15 7 C-15 7.66 -15 8.32 -15 9 C-14.40832031 9.17015625 -13.81664062 9.3403125 -13.20703125 9.515625 C-8.3842671 10.9947109 -4.70144002 12.41422998 -1 16 C0.85855282 19.71710563 0.57908439 23.95277281 0 28 C-2.52676039 31.34625024 -4.03933542 32.67977847 -8 34 C-21.28041018 34.92200445 -21.28041018 34.92200445 -27 31 C-26.34 28.03 -25.68 25.06 -25 22 C-21.04 22.99 -17.08 23.98 -13 25 C-13 24.01 -13 23.02 -13 22 C-14.051875 21.7525 -15.10375 21.505 -16.1875 21.25 C-19.8220558 20.21787462 -22.22677369 18.61009535 -25 16 C-26.86352031 12.27295938 -26.55608628 8.05879065 -26 4 C-23.6336747 0.5580723 -21.68840855 -0.67686946 -17.9375 -2.4375 C-12.09972921 -3.27146726 -5.35775356 -2.67887678 0 0 Z " fill="#1F1F1F" transform="translate(530,195)"/>
<path d="M0 0 C-0.75 6.75 -0.75 6.75 -3 9 C-5.6015625 8.7578125 -5.6015625 8.7578125 -8.625 8.125 C-9.62789063 7.92132813 -10.63078125 7.71765625 -11.6640625 7.5078125 C-12.82035156 7.25644531 -12.82035156 7.25644531 -14 7 C-14 7.66 -14 8.32 -14 9 C-13.13375 9.2475 -12.2675 9.495 -11.375 9.75 C-6.46538789 11.56837486 -2.92438015 13.61342978 0 18 C0.72517392 22.50282411 0.60000036 25.99285654 -1.75 29.9375 C-6.77825797 34.54673647 -11.21902494 34.35155031 -17.84765625 34.26953125 C-21.68702056 33.94125846 -23.85770965 33.15471338 -27 31 C-26.5020163 27.26512223 -26.12508244 25.18762365 -24 22 C-20.04 22.99 -16.08 23.98 -12 25 C-12 24.01 -12 23.02 -12 22 C-12.59167969 21.84144531 -13.18335938 21.68289062 -13.79296875 21.51953125 C-18.99089504 19.98474388 -22.80524068 18.63755385 -26 14 C-26.83851344 9.98653274 -26.40753712 6.91695852 -24.75 3.1875 C-22.23765122 0.04706402 -20.29764614 -1.58855122 -16.4375 -2.8125 C-11.04106735 -3.10685087 -4.88988503 -2.44494252 0 0 Z " fill="#1B1B1B" transform="translate(345,195)"/>
<path d="M0 0 C3.21958092 2.14638728 3.42810665 2.4423322 4.38671875 5.9140625 C4.60263672 6.67460937 4.81855469 7.43515625 5.04101562 8.21875 C5.25435547 9.0128125 5.46769531 9.806875 5.6875 10.625 C6.02491211 11.82769531 6.02491211 11.82769531 6.36914062 13.0546875 C6.92278748 15.0336805 7.46271429 17.01650254 8 19 C8.27714844 17.79601562 8.55429687 16.59203125 8.83984375 15.3515625 C9.20559679 13.77601093 9.57148945 12.20049177 9.9375 10.625 C10.11990234 9.8309375 10.30230469 9.036875 10.49023438 8.21875 C10.66748047 7.45820313 10.84472656 6.69765625 11.02734375 5.9140625 C11.18968506 5.2123291 11.35202637 4.5105957 11.51928711 3.78759766 C12 2 12 2 13 0 C14.258125 -0.020625 15.51625 -0.04125 16.8125 -0.0625 C17.52019531 -0.07410156 18.22789062 -0.08570313 18.95703125 -0.09765625 C21 0 21 0 24 1 C23.29003464 7.8136953 21.3758647 14.23943996 19.5 20.8125 C19.01853516 22.52856445 19.01853516 22.52856445 18.52734375 24.27929688 C16.14318665 32.7136267 16.14318665 32.7136267 15 35 C12.890625 35.484375 12.890625 35.484375 10.25 35.75 C9.38890625 35.84796875 8.5278125 35.9459375 7.640625 36.046875 C4.36720417 35.98876694 2.75669857 35.83325004 0 34 C-1.46310731 31.14236854 -2.27723137 28.15000157 -3.125 25.0625 C-3.50229248 23.77666016 -3.50229248 23.77666016 -3.88720703 22.46484375 C-4.61071269 19.98157351 -5.30744706 17.49204674 -6 15 C-6.34546875 13.81277344 -6.6909375 12.62554687 -7.046875 11.40234375 C-9 4.5571934 -9 4.5571934 -9 1 C-5.74531799 -0.084894 -3.4103976 -0.21314985 0 0 Z " fill="#181818" transform="translate(280,193)"/>
<path d="M0 0 C3.00685978 1.79132072 4.52657334 3.24682123 6.375 6.1875 C7.41972527 10.88876372 7.39959604 15.64613393 4.8828125 19.87890625 C2.38888387 22.94097839 0.57231165 24.82016043 -3.390625 25.2734375 C-12.07350888 25.58184594 -12.07350888 25.58184594 -15.5625 23.0625 C-18.65768687 19.17367547 -19.88064393 15.97032775 -20 11 C-18.53722971 5.751236 -16.55837341 2.96294272 -12 0 C-7.81597182 -1.39467606 -4.27099461 -0.96829228 0 0 Z " fill="#1D1D1D" transform="translate(152,193)"/>
<path d="M0 0 C4.05606165 0.46800711 7.46588679 0.87953208 11 3 C11.515625 2.505 12.03125 2.01 12.5625 1.5 C15.82929507 -0.51033543 18.23420736 -0.28421077 22 0 C22.33 0.33 22.66 0.66 23 1 C22.9140625 2.99609375 22.9140625 2.99609375 22.625 5.4375 C22.53476562 6.24058594 22.44453125 7.04367188 22.3515625 7.87109375 C22 10 22 10 21 12 C18.67284 12.37400786 16.33882138 12.70764733 14 13 C12.38219843 14.61780157 12.77727853 16.45635518 12.68359375 18.69140625 C12.64169922 19.63564453 12.59980469 20.57988281 12.55664062 21.55273438 C12.51732422 22.54595703 12.47800781 23.53917969 12.4375 24.5625 C12.39431641 25.55958984 12.35113281 26.55667969 12.30664062 27.58398438 C12.20019702 30.0558415 12.09818072 32.5278031 12 35 C10.56359829 35.19573608 9.12580496 35.38127816 7.6875 35.5625 C6.48673828 35.71912109 6.48673828 35.71912109 5.26171875 35.87890625 C3 36 3 36 0 35 C-0.02505615 34.2793335 -0.0501123 33.55866699 -0.07592773 32.81616211 C-0.19260076 29.52312536 -0.31500179 26.23032499 -0.4375 22.9375 C-0.47681641 21.80376953 -0.51613281 20.67003906 -0.55664062 19.50195312 C-0.7910895 12.65933719 -0.7910895 12.65933719 -1.66015625 5.87890625 C-2 3 -2 3 0 0 Z " fill="#202020" transform="translate(480,193)"/>
<path d="M0 0 C0.99 0.33 1.98 0.66 3 1 C5.00838196 0.35902703 7.00827818 -0.30899447 9 -1 C10.32 -1 11.64 -1 13 -1 C13 0.65 13 2.3 13 4 C11.95199219 4.22042969 11.95199219 4.22042969 10.8828125 4.4453125 C8.12245065 5.12562831 5.5928713 5.82847011 3 7 C1.38852558 9.99428144 1.38852558 9.99428144 1 13 C-2.04983996 14.52491998 -4.6423369 14.23562548 -8 14 C-9.9375 13 -9.9375 13 -11 11 C-11.54225763 7.33403296 -11.8208348 4.15663086 -9.625 1.0625 C-6.0320494 -1.28673693 -4.18612985 -0.85431221 0 0 Z " fill="#1D1D1D" transform="translate(119,209)"/>
<path d="M0 0 C3.9375 0.625 3.9375 0.625 6.0625 2.6875 C7.23708182 6.63073897 6.43349431 8.84939532 4.9375 12.625 C2.9375 14.625 2.9375 14.625 0.3125 14.75 C-0.47125 14.70875 -1.255 14.6675 -2.0625 14.625 C-2.330625 15.346875 -2.59875 16.06875 -2.875 16.8125 C-4.05232498 19.60090126 -5.45395884 22.06595724 -7.0625 24.625 C-9.5375 23.635 -9.5375 23.635 -12.0625 22.625 C-11.00374926 19.22187262 -10.05347846 16.61146769 -8.0625 13.625 C-8.124375 11.706875 -8.124375 11.706875 -8.1875 9.75 C-8.2453124 6.61656779 -8.02952051 5.55904101 -6.5625 2.625 C-3.97181865 0.55245492 -3.17467174 0.22216856 0 0 Z " fill="#1A1A1A" transform="translate(163.0625,169.375)"/>
<path d="M0 0 C2.54528525 0.10741571 3.74267933 0.21728733 5.9375 1.5625 C7.35153783 3.97468218 7.86902678 5.55907585 8 8.375 C5.72289157 14.01355422 5.72289157 14.01355422 3 15.375 C-0.74401272 15.7819579 -2.36787347 15.87404726 -5.375 13.5 C-7 11.375 -7 11.375 -7 9.375 C-8.7015625 9.4059375 -8.7015625 9.4059375 -10.4375 9.4375 C-14 9.375 -14 9.375 -15 8.375 C-15.04063832 6.70882885 -15.042721 5.04111905 -15 3.375 C-13.1128125 3.4678125 -13.1128125 3.4678125 -11.1875 3.5625 C-8.99377981 3.61385845 -8.99377981 3.61385845 -7 3.375 C-6.505 2.88 -6.01 2.385 -5.5 1.875 C-3.58223115 -0.04276885 -2.66601891 0.0869354 0 0 Z " fill="#272727" transform="translate(175,200.625)"/>
<path d="M0 0 C1.875 1.6875 1.875 1.6875 3 4 C3 6 3 8 3 10 C3.98020375 11.0194119 4.97803008 12.02246356 6 13 C5.6875 15.1875 5.6875 15.1875 5 17 C1.00151617 17 0.31256763 16.65628381 -3 15 C-4.010625 14.855625 -5.02125 14.71125 -6.0625 14.5625 C-9.20530713 13.96068587 -10.1873677 13.57584589 -12 11 C-13.12097052 8.41314496 -13.04813611 7.19735805 -12.375 4.4375 C-9.42577308 -0.790675 -5.57789062 -1.81887738 0 0 Z " fill="#2D2D2D" transform="translate(130,179)"/>
<path d="M0 0 C1.32 0 2.64 0 4 0 C4.33 2.64 4.66 5.28 5 8 C5.78375 8.28875 6.5675 8.5775 7.375 8.875 C10 10 10 10 12 12 C12.45892595 15.51843231 12.41140736 17.34860502 10.5 20.375 C6.75900771 22.80664499 4.42573582 22.49174842 0 22 C-2 20.9375 -2 20.9375 -3 19 C-3.3125 15.4375 -3.3125 15.4375 -3 12 C-2.34 11.34 -1.68 10.68 -1 10 C-0.79512527 7.82184635 -0.79512527 7.82184635 -0.9375 5.4375 C-0.99190191 3.95918728 -1.02026267 2.47917459 -1 1 C-0.67 0.67 -0.34 0.34 0 0 Z " fill="#212121" transform="translate(148,219)"/>
</svg>
